<svg xmlns="http://www.w3.org/2000/svg" width="16" height="16" viewBox="0 0 16 16"><path fill="#E21C3D" d="M14.927 3.984a7.97 7.97 0 0 0-2.911-2.911A7.8 7.8 0 0 0 8 0Q5.824 0 3.985 1.073a7.96 7.96 0 0 0-2.912 2.911A7.8 7.8 0 0 0 0 8q0 2.177 1.073 4.016a7.97 7.97 0 0 0 2.911 2.911A7.8 7.8 0 0 0 8 16a7.83 7.83 0 0 0 4.016-1.073 7.97 7.97 0 0 0 2.911-2.911A7.83 7.83 0 0 0 16 8q0-2.177-1.073-4.016M9.334 12.99a.34.34 0 0 1-.094.245.3.3 0 0 1-.23.1h-2a.33.33 0 0 1-.24-.105.33.33 0 0 1-.103-.24v-1.98q0-.135.104-.24a.33.33 0 0 1 .24-.103h2q.136 0 .229.099a.34.34 0 0 1 .094.245zm-.021-3.583a.26.26 0 0 1-.11.183.4.4 0 0 1-.244.078H7.032a.4.4 0 0 1-.25-.078q-.105-.078-.105-.183L6.5 2.937q0-.124.104-.187a.4.4 0 0 1 .25-.083h2.292q.146 0 .25.083.104.063.104.187z"/></svg>