<svg width="16" height="16" viewBox="0 0 16 16" xmlns="http://www.w3.org/2000/svg"><path d="M14.927 3.984a7.966 7.966 0 00-2.911-2.911A7.825 7.825 0 008 0C6.55 0 5.21.358 3.985 1.073a7.963 7.963 0 00-2.912 2.911A7.825 7.825 0 000 8c0 1.451.358 2.79 1.073 4.016a7.967 7.967 0 002.911 2.911A7.825 7.825 0 008 16c1.452 0 2.79-.358 4.016-1.073a7.965 7.965 0 002.911-2.911A7.828 7.828 0 0016 8c0-1.451-.358-2.79-1.073-4.016zM9.334 12.99a.342.342 0 01-.094.245.303.303 0 01-.23.1h-2a.33.33 0 01-.24-.105.33.33 0 01-.103-.24V11.01c0-.09.035-.17.104-.24a.33.33 0 01.24-.103h2c.09 0 .167.033.229.099a.343.343 0 01.094.245v1.979zm-.021-3.583a.264.264 0 01-.11.183.383.383 0 01-.244.078H7.032a.405.405 0 01-.25-.078c-.07-.052-.105-.113-.105-.183L6.5 2.937c0-.083.035-.145.104-.187a.389.389 0 01.25-.083h2.292c.098 0 .18.027.25.083.07.042.104.104.104.187l-.187 6.47z" fill="#E21C3D"/></svg>
