<svg xmlns="http://www.w3.org/2000/svg" width="16" height="16" viewBox="0 0 16 16"><path fill="#00A2C4" d="M14.927 3.984a7.97 7.97 0 0 0-2.911-2.911A7.8 7.8 0 0 0 8 0Q5.824 0 3.985 1.073a7.96 7.96 0 0 0-2.912 2.911A7.8 7.8 0 0 0 0 8q0 2.177 1.073 4.016a7.97 7.97 0 0 0 2.911 2.911A7.8 7.8 0 0 0 8 16a7.83 7.83 0 0 0 4.016-1.073 7.97 7.97 0 0 0 2.911-2.911A7.83 7.83 0 0 0 16 8q0-2.177-1.073-4.016M6.667 2q0-.146.094-.24A.33.33 0 0 1 7 1.667h2q.145 0 .239.093a.33.33 0 0 1 .094.24v1.667a.33.33 0 0 1-.094.24A.32.32 0 0 1 9 4H7a.32.32 0 0 1-.24-.094.32.32 0 0 1-.093-.24zm4 11a.33.33 0 0 1-.094.24.32.32 0 0 1-.24.093H5.668a.32.32 0 0 1-.24-.094.32.32 0 0 1-.094-.24v-1.666q0-.146.094-.24a.33.33 0 0 1 .24-.093h1V7.667h-1a.32.32 0 0 1-.24-.094.32.32 0 0 1-.094-.24V5.667q0-.146.094-.24a.32.32 0 0 1 .24-.094H9q.146 0 .24.094a.33.33 0 0 1 .094.24V11h1a.32.32 0 0 1 .239.094.33.33 0 0 1 .094.24z"/></svg>