<svg xmlns="http://www.w3.org/2000/svg" width="17" height="17" viewBox="0 0 17 17"><path fill-rule="evenodd" d="M8.5 17a8.5 8.5 0 1 0 0-17 8.5 8.5 0 1 0 0 17zm4.25-8.652a.91.91 0 0 0-.911-.911h-.455V6.071A2.89 2.89 0 0 0 8.5 3.188a2.89 2.89 0 0 0-2.884 2.884v1.366h-.455a.91.91 0 0 0-.911.911v3.643a.91.91 0 0 0 .911.911h6.679a.91.91 0 0 0 .911-.911V8.348zM9.866 6.071v1.366H7.134V6.071A1.37 1.37 0 0 1 8.5 4.705a1.37 1.37 0 0 1 1.366 1.366zM7.65 9.623a.85.85 0 0 1 1.7 0v.971a.85.85 0 0 1-1.7 0v-.971z" fill="#18852e"/></svg>