<svg width="16" height="16" viewBox="0 0 16 16" xmlns="http://www.w3.org/2000/svg"><path d="M15.848 13.734L9 1.177A1.137 1.137 0 007.42.739a1.138 1.138 0 00-.419.437L.151 13.734c-.207.375-.201.75.019 1.124a1.131 1.131 0 00.981.562h13.698c.203 0 .391-.051.567-.152.175-.101.313-.238.414-.41.22-.375.226-.75.018-1.124zm-6.706-.892a.285.285 0 01-.085.21.274.274 0 01-.2.084H7.143a.274.274 0 01-.2-.085.285.285 0 01-.085-.21v-1.694c0-.083.028-.153.084-.21a.274.274 0 01.201-.084h1.712c.078 0 .145.028.201.085a.285.285 0 01.085.21v1.694h.001zm-.018-3.336a.2.2 0 01-.094.148.362.362 0 01-.21.058H7.17a.384.384 0 01-.213-.058c-.06-.04-.09-.088-.09-.148L6.716 5.43c0-.084.03-.146.09-.188.076-.065.148-.098.213-.098h1.962c.066 0 .137.033.214.099.06.04.09.098.09.169l-.161 4.093z" fill="#F5D600"/></svg>
