<svg xmlns="http://www.w3.org/2000/svg" width="16" height="16" viewBox="0 0 16 16"><path fill="#F5D600" d="M15.848 13.734 9 1.177A1.137 1.137 0 0 0 7.42.739a1.14 1.14 0 0 0-.419.437L.151 13.734q-.31.563.019 1.124a1.13 1.13 0 0 0 .981.562h13.698q.304 0 .567-.152t.414-.41q.33-.563.018-1.124m-6.706-.892a.28.28 0 0 1-.085.21.27.27 0 0 1-.2.084H7.143a.27.27 0 0 1-.2-.085.28.28 0 0 1-.085-.21v-1.694q0-.125.084-.21a.27.27 0 0 1 .201-.084h1.712q.117 0 .201.085a.28.28 0 0 1 .085.21zm-.018-3.336a.2.2 0 0 1-.094.148.36.36 0 0 1-.21.058H7.17a.4.4 0 0 1-.213-.058q-.09-.059-.09-.148L6.716 5.43q0-.125.09-.188.115-.098.213-.098h1.962q.099 0 .214.099.09.061.09.169l-.161 4.093z"/></svg>