<svg id="Layer_1" data-name="Layer 1" xmlns="http://www.w3.org/2000/svg" viewBox="0 0 65.22 36.12"><defs><style>.cls-1{fill:none;stroke:#fff;stroke-linecap:round;stroke-linejoin:round;}</style></defs><title>i-agreement</title><line class="cls-1" x1="44.68" y1="26.33" x2="38.66" y2="21.27"/><line class="cls-1" x1="39.14" y1="29.4" x2="34.24" y2="25.38"/><path class="cls-1" d="M12.34,18.78c1.75,5,15.82,15.89,15.82,15.89,3.39,2.87,6.46-1.51,3.67-3.87l-2.14-2.08"/><path class="cls-1" d="M29.69,28.73l5.82,5.05a2.83,2.83,0,1,0,3.85-4.13l1.47,1.24c2.93,2.48,6.78-2.09,3.86-4.56l0.23,0.19C47.83,29,51.68,24.43,48.76,22L34.36,10.22s-2.78,1.06-3.85.76c0,0-4.15,6.36-7.18,4.15s0-11.62,8.52-13c0,0,3.84-1.09,13.23,3.75l3.48-1.05"/><rect class="cls-1" x="-2.39" y="7.21" width="21.97" height="10.61" transform="translate(-5.79 17.38) rotate(-74.19)"/><rect class="cls-1" x="51.31" y="2.09" width="10.61" height="21.97" transform="translate(-1.42 15.92) rotate(-15.81)"/><path class="cls-1" d="M16.29,4.81s0.49-.9,11.32-1.13"/><path class="cls-1" d="M49.69,23.46s2.68,0.7,4.09-.91"/></svg>