<?xml version="1.0" encoding="UTF-8" standalone="no"?>
<svg width="32px" height="32px" viewBox="0 0 32 32" version="1.1" xmlns="http://www.w3.org/2000/svg" xmlns:xlink="http://www.w3.org/1999/xlink">
    <title>service-reverse</title>
    <g id="Symbols" stroke="none" stroke-width="1"  fill-rule="evenodd">
        <g id="i-fill-service--reverse">
            <path d="M13.1993768,12.4774908 L11.4489542,10.7332286 C11.7960079,10.243751 12,9.64569797 12,9 C12,7.34314575 10.6568542,6 9,6 C7.34314575,6 6,7.34314575 6,9 C6,10.6568542 7.34314575,12 9,12 C9.65013315,12 10.2519646,11.7931959 10.7432996,11.4417825 L12.4906247,13.182958 C11.8708582,13.9540535 11.5,14.9337175 11.5,16 C11.5,17.0621084 11.8679603,18.0382752 12.4833577,18.8079768 L10.737736,20.5542478 C10.2474245,20.2052472 9.6476813,20 9,20 C7.34314575,20 6,21.3431458 6,23 C6,24.6568542 7.34314575,26 9,26 C10.6568542,26 12,24.6568542 12,23 C12,22.3518509 11.7944562,21.751709 11.4449956,21.2612017 L13.1902912,19.5152569 C13.9602603,20.1314874 14.9370948,20.5 16,20.5 C17.0585973,20.5 18.0318201,20.1344685 18.8003365,19.5227375 L20.5509213,21.266947 C20.2039433,21.756392 20,22.3543793 20,23 C20,24.6568542 21.3431458,26 23,26 C24.6568542,26 26,24.6568542 26,23 C26,21.3431458 24.6568542,20 23,20 C22.3497896,20 21.7478923,20.2068533 21.2565252,20.5583428 L19.5091461,18.8173273 C20.1290504,18.0461881 20.5,17.066414 20.5,16 C20.5,14.9435614 20.1359577,13.9721494 19.5264766,13.2043675 L21.2698273,11.4511181 C21.7587372,11.7968557 22.3556452,12 23,12 C24.6568542,12 26,10.6568542 26,9 C26,7.34314575 24.6568542,6 23,6 C21.3431458,6 20,7.34314575 20,9 C20,9.65147739 20.2076602,10.2544532 20.5603992,10.7463459 L18.8220001,12.4946155 C18.050148,11.8724505 17.0685692,11.5 16,11.5 C14.9412711,11.5 13.9679379,11.8656224 13.1993768,12.4774908 Z M0,0 L32,0 L32,32 L0,32 L0,0 Z M16,19.5 C14.0670034,19.5 12.5,17.9329966 12.5,16 C12.5,14.0670034 14.0670034,12.5 16,12.5 C17.9329966,12.5 19.5,14.0670034 19.5,16 C19.5,17.9329966 17.9329966,19.5 16,19.5 Z" id="Combined-Shape"></path>
        </g>
    </g>
</svg>
