<?xml version="1.0" encoding="UTF-8" standalone="no"?>
<svg width="20px" height="20px" viewBox="0 0 20 20" version="1.1" xmlns="http://www.w3.org/2000/svg" xmlns:xlink="http://www.w3.org/1999/xlink">
    <title>service</title>
    <defs>
      <style>.fill{fill:#1188ff;stroke:none;}</style>
    </defs>
    <g id="Symbols" stroke="none" stroke-width="1"  fill-rule="evenodd">
        <g class="fill" id="icon/service-32" transform="translate(-6.000000, -6.000000)">
            <g id="Group-2" transform="translate(6.000000, 6.000000)">
                <circle id="Oval-2-Copy-2" cx="3" cy="3" r="3"></circle>
                <circle id="Oval-2-Copy-3" cx="17" cy="17" r="3"></circle>
                <circle id="Oval-2-Copy-4" cx="3" cy="17" r="3"></circle>
                <polygon id="Line-Copy-3" points="13.0658569 7.66760254 17.7071068 3 17 2.29289322 12.3587502 6.96049576"></polygon>
                <circle id="Oval-2-Copy" cx="17" cy="3" r="3"></circle>
                <polygon id="Line-Copy-4" points="3 17.7071068 7.63342285 13.0719604 6.92631607 12.3648537 2.29289322 17"></polygon>
                <polygon id="Line-Copy-2" points="12.3535622 13.0775902 17 17.7071068 17.7071068 17 13.0606689 12.3704834"></polygon>
                <polygon id="Line-Copy" points="2.29289322 3 6.71936035 7.41088867 7.42646713 6.70378189 3 2.29289322"></polygon>
                <path d="M10,14.5 C12.4852814,14.5 14.5,12.4852814 14.5,10 C14.5,7.51471863 12.4852814,5.5 10,5.5 C7.51471863,5.5 5.5,7.51471863 5.5,10 C5.5,12.4852814 7.51471863,14.5 10,14.5 Z M10,13.5 C8.06700338,13.5 6.5,11.9329966 6.5,10 C6.5,8.06700338 8.06700338,6.5 10,6.5 C11.9329966,6.5 13.5,8.06700338 13.5,10 C13.5,11.9329966 11.9329966,13.5 10,13.5 Z" id="Oval-2-Copy-5"></path>
            </g>
        </g>
    </g>
</svg>
