<?xml version="1.0" encoding="UTF-8" standalone="no"?>
<svg width="16px" height="16px" viewBox="0 0 16 16" version="1.1" xmlns="http://www.w3.org/2000/svg" xmlns:xlink="http://www.w3.org/1999/xlink">
    <title>org</title>
    <defs>
      <style>.fill{fill:#1188ff;stroke:none;}</style>
    </defs>
    <g id="Symbols" stroke="none" stroke-width="1"  fill-rule="evenodd">
        <g class="fill" id="i-fill-org--new">
            <path d="M7.5,4.71132487 L7.5,2.52242151 C5.85092969,2.67102719 4.41174636,3.54751621 3.50619079,4.82814778 L5.40192379,5.92264973 L7.5,4.71132487 Z M8.5,4.71132487 L8.5,2.52242151 C10.1490703,2.67102719 11.5882536,3.54751621 12.4938092,4.82814778 L10.5980762,5.92264973 L8.5,4.71132487 Z M11.0980762,6.78867513 L12.9945684,5.69373483 C13.3189843,6.39513427 13.5,7.17642789 13.5,8 C13.5,8.82357211 13.3189843,9.60486573 12.9945684,10.3062652 L11.0980762,9.21132487 L11.0980762,6.78867513 Z M10.5980762,10.0773503 L12.4938092,11.1718522 C11.5882536,12.4524838 10.1490703,13.3289728 8.5,13.4775785 L8.5,11.2886751 L10.5980762,10.0773503 Z M7.5,11.2886751 L7.5,13.4775785 C5.85092969,13.3289728 4.41174636,12.4524838 3.50619079,11.1718522 L5.40192379,10.0773503 L7.5,11.2886751 Z M4.90192379,9.21132487 L3.00543156,10.3062652 C2.68101575,9.60486573 2.5,8.82357211 2.5,8 C2.5,7.17642789 2.68101575,6.39513427 3.00543156,5.69373483 L4.90192379,6.78867513 L4.90192379,9.21132487 Z M0,0 L16,0 L16,16 L0,16 L0,0 Z M10.0980762,6.78867513 L10.0980762,9.21132487 L8,10.4226497 L5.90192379,9.21132487 L5.90192379,6.78867513 L8,5.57735027 L10.0980762,6.78867513 Z" id="Combined-Shape"></path>
        </g>
    </g>
</svg>
