<svg id="Layer_1" data-name="Layer 1" xmlns="http://www.w3.org/2000/svg" viewBox="0 0 46.17 60.53"><defs><style>.cls-1{fill:none;stroke:#fff;stroke-linecap:round;stroke-linejoin:round;}</style></defs><title>i-locked</title><path class="cls-1" d="M6.14,23A5.56,5.56,0,0,0,.5,28.55L3,54.48A5.57,5.57,0,0,0,8.63,60H37.54a5.61,5.61,0,0,0,5.64-5.6l2.49-25.9A5.54,5.54,0,0,0,40,23H6.14Z"/><path class="cls-1" d="M25.88,49.61H20.29l-1.05-8.66a3.85,3.85,0,0,1,7.69,0Z"/><path class="cls-1" d="M11.7,23V11.14C11.7,5.27,17.08.5,23.09,0.5S34.48,5.27,34.48,11.14V23"/></svg>