<svg id="Layer_1" data-name="Layer 1" xmlns="http://www.w3.org/2000/svg" viewBox="0 0 30.28 37.59"><defs><style>.cls-1{fill:none;stroke:#fff;stroke-linecap:round;stroke-linejoin:round;}</style></defs><title>i-paperwork</title><polyline class="cls-1" points="23.47 0.5 23.47 6.68 29.78 6.68"/><path class="cls-1" d="M29.78,31a1.12,1.12,0,0,1-1.11,1.11H6.73A1.11,1.11,0,0,1,5.63,31V1.62A1.12,1.12,0,0,1,6.73.5H24.16a0.82,0.82,0,0,1,.63.33l4.65,4.53a1.1,1.1,0,0,1,.33.79V31Z"/><line class="cls-1" x1="24.31" y1="15.62" x2="11.6" y2="15.62"/><line class="cls-1" x1="24.31" y1="20.7" x2="11.6" y2="20.7"/><line class="cls-1" x1="24.31" y1="25.79" x2="11.6" y2="25.79"/><line class="cls-1" x1="19.38" y1="10.51" x2="11.43" y2="10.51"/><path class="cls-1" d="M1.65,5.24A1.15,1.15,0,0,0,.5,6.39V35.94a1.15,1.15,0,0,0,1.15,1.15h24a1.15,1.15,0,0,0,1.15-1.15"/></svg>