<?xml version="1.0" encoding="UTF-8" standalone="no"?>
<svg width="32px" height="32px" viewBox="0 0 32 32" version="1.1" xmlns="http://www.w3.org/2000/svg" xmlns:xlink="http://www.w3.org/1999/xlink">
    <!-- Generator: Sketch 40.2 (33826) - http://www.bohemiancoding.com/sketch -->
    <title>i-search</title>
    <desc>Created with Sketch.</desc>
    <defs>
        <rect id="path-1" x="0" y="0" width="32" height="32" rx="2"></rect>
    </defs>
    <g id="-blocks-components-symbols" stroke="none" stroke-width="1" fill="none" fill-rule="evenodd">
        <g id="i-search">
            <g id="features/search">
                <g id="search">
                    <g id="original">
                        <g id="header">
                            <g id="Group">
                                <g id="Group-4">
                                    <g id="Rectangle-9-Clipped">
                                        <mask id="mask-2" fill="white">
                                            <use xlink:href="#path-1"></use>
                                        </mask>
                                        <g id="path-1"></g>
                                        <g id="Rectangle-9" mask="url(#mask-2)" stroke="#333333" stroke-width="2" fill="#FFFFFF">
                                            <rect id="path-1" x="0" y="0" width="32" height="32" rx="2"></rect>
                                        </g>
                                    </g>
                                    <path d="M19.5714424,14.928563 C19.5714424,17.4095927 17.5524667,19.4285684 15.071437,19.4285684 C12.5904073,19.4285684 10.5714316,17.4095927 10.5714316,14.928563 C10.5714316,12.4475333 12.5904073,10.4285576 15.071437,10.4285576 C17.5524667,10.4285576 19.5714424,12.4475333 19.5714424,14.928563 L19.5714424,14.928563 L19.5714424,14.928563 Z M24.7143056,23.2857158 C24.7143056,22.9441976 24.5736805,22.6127239 24.3426534,22.3816969 L20.8973368,18.9363803 C21.7109538,17.7611557 22.142874,16.354904 22.142874,14.928563 C22.142874,11.0211923 18.9788077,7.857126 15.071437,7.857126 C11.1640663,7.857126 8,11.0211923 8,14.928563 C8,18.8359337 11.1640663,22 15.071437,22 C16.497778,22 17.9040297,21.5680798 19.0792543,20.7544628 L22.5245709,24.1897348 C22.7555979,24.4308065 23.0870716,24.5714316 23.4285898,24.5714316 C24.1317157,24.5714316 24.7143056,23.9888417 24.7143056,23.2857158 L24.7143056,23.2857158 L24.7143056,23.2857158 Z" id="" fill="#333333"></path>
                                </g>
                            </g>
                        </g>
                    </g>
                </g>
            </g>
        </g>
    </g>
</svg>