<svg id="Layer_1" data-name="Layer 1" xmlns="http://www.w3.org/2000/svg" viewBox="0 0 45.89 46.11"><defs><style>.cls-1{fill:none;stroke:#fff;stroke-linecap:round;stroke-linejoin:round;}</style></defs><title>i-shipping</title><polygon class="cls-1" points="22.81 40.65 11.84 45.61 11.84 29.9 22.81 24.94 22.81 40.65"/><polygon class="cls-1" points="11.84 45.61 0.5 40.65 0.5 24.94 11.84 29.9 11.84 45.61"/><polygon class="cls-1" points="11.84 20.03 0.5 24.94 11.84 29.9 22.81 24.94 11.84 20.03"/><polygon class="cls-1" points="34.15 20.03 22.81 24.94 22.81 9.93 34.15 5.19 34.15 20.03"/><polygon class="cls-1" points="22.81 24.94 11.84 20.03 11.84 5.19 22.81 9.93 22.81 24.94"/><polygon class="cls-1" points="22.81 0.5 11.84 5.19 22.81 9.93 34.15 5.19 22.81 0.5"/><polygon class="cls-1" points="45.39 40.65 34.15 45.61 34.15 29.9 45.39 24.94 45.39 40.65"/><polygon class="cls-1" points="34.15 45.61 22.81 40.65 22.81 24.94 34.15 29.9 34.15 45.61"/><polygon class="cls-1" points="34.15 20.03 22.81 24.94 34.15 29.9 45.39 24.94 34.15 20.03"/></svg>