<svg id="Layer_1" data-name="Layer 1" xmlns="http://www.w3.org/2000/svg" viewBox="0 0 66.11 61.47"><defs><style>.cls-1{fill:none;stroke:#fff;stroke-linecap:round;stroke-linejoin:round;}</style></defs><title>i-user_researched</title><path class="cls-1" d="M38.15,38.37a5.93,5.93,0,0,1-2.39-2.47V33A18.43,18.43,0,0,0,40,25.1a4.74,4.74,0,0,0,.89-6.82V11.79c0-6.7-3.68-11.29-12.1-11.29-8.2,0-12.1,4.59-12.1,11.29v6.5a4.74,4.74,0,0,0,.89,6.81A18.42,18.42,0,0,0,21.88,33v2.9c-0.85,2.76-11,7.2-20.09,10.78A2.07,2.07,0,0,0,.5,48.61v3.06"/><circle class="cls-1" cx="53.29" cy="48.65" r="12.32" transform="translate(-18.79 51.93) rotate(-45)"/><line class="cls-1" x1="51.17" y1="53.63" x2="59.08" y2="45.18"/><line class="cls-1" x1="51.17" y1="53.63" x2="47.5" y2="49.7"/></svg>