<svg id="Layer_1" data-name="Layer 1" xmlns="http://www.w3.org/2000/svg" viewBox="0 0 34.67 34.67"><defs><style>.cls-1{fill:none;stroke:#fff;stroke-linecap:round;stroke-linejoin:round;}</style></defs><title>i-user</title><path class="cls-1" d="M17.34,0.5A16.84,16.84,0,1,0,34.17,17.34,16.85,16.85,0,0,0,17.34.5Z"/><path class="cls-1" d="M28.58,29.89c-3.65-1.52-7.5-3.27-7.5-4.37V24a9.32,9.32,0,0,0,2.37-4c1.09-.76.63-2.35,0.63-3.47v-3.3c0-3.41-2.16-5.74-6.5-5.74s-6.5,2.33-6.5,5.74v3.3A2.35,2.35,0,0,0,11.7,20a9.33,9.33,0,0,0,2.37,4v1.48c-1,1.11-3.77,2.75-7.46,4.28"/></svg>