<?xml version="1.0" encoding="UTF-8" standalone="no"?>
<svg width="233px" height="47px" viewBox="0 0 233 47" version="1.1" xmlns="http://www.w3.org/2000/svg" xmlns:xlink="http://www.w3.org/1999/xlink">
    <g id="-nonpage-elements" stroke="none" stroke-width="1" fill-rule="evenodd">
        <g id="logo-dashboard">
            <g id="Group-54" transform="translate(193.571429, 28.000000)">
                <g id="Group-20" transform="translate(0.937566, 0.000000)">
                    <g id="ui/notification" transform="translate(0.869841, 0.000000)"></g>
                </g>
            </g>
            <path d="M51,13.0374286 L51,33.0714286 L54.753,33.0714286 C62.043,33.0714286 65.499,29.7774286 65.499,22.9194286 C65.499,16.3854286 62.448,13.1454286 55.077,13.0644286 C53.376,13.0644286 51.135,13.0374286 51,13.0374286 Z M52.998,14.6574286 L54.618,14.6574286 C60.801,14.7654286 63.447,16.6284286 63.447,23.0004286 C63.447,29.1834286 60.855,31.4784286 54.456,31.4784286 L52.998,31.4784286 L52.998,14.6574286 Z M73.437,33.3414286 C75.516,33.3414286 77.19,32.5314286 78.702,30.9384286 L78.837,33.0714286 L80.403,33.0714286 L80.403,23.1354286 C80.403,20.2464286 78.486,18.4914286 75.138,18.4914286 C72.33,18.4914286 70.359,19.8144286 69.252,21.7584286 L70.764,22.3794286 C71.871,20.7054286 73.302,19.8684286 75.03,19.8684286 C77.244,19.8684286 78.675,21.1914286 78.675,23.2704286 L78.675,24.4314286 L75.813,24.6474286 C71.277,24.9714286 68.874,26.6184286 68.874,29.4264286 C68.874,31.8294286 70.629,33.3414286 73.437,33.3414286 Z M73.977,31.9374286 C71.979,31.9374286 70.683,30.9114286 70.683,29.2374286 C70.683,27.2394286 72.546,26.1054286 76.245,25.8354286 L78.675,25.6464286 L78.675,28.5354286 C78.594,30.2364286 76.11,31.9374286 73.977,31.9374286 Z M89.502,33.3414286 C92.742,33.3414286 95.172,31.6674286 95.172,29.2374286 C95.172,27.6444286 94.227,26.3484286 91.851,25.6464286 L88.422,24.5664286 C86.424,23.9454286 85.911,23.1894286 85.911,22.3524286 C85.911,20.8134286 87.477,19.8684286 89.556,19.8684286 C91.473,19.8684286 92.904,20.7054286 93.714,21.9474286 L94.983,21.2184286 C93.984,19.5444286 91.959,18.4914286 89.583,18.4914286 C86.451,18.4914286 84.21,20.1654286 84.21,22.6764286 C84.21,24.2154286 85.101,25.4574286 87.801,26.2134286 L90.474,26.9964286 C92.526,27.5904286 93.444,28.3194286 93.444,29.4264286 C93.444,30.9114286 91.662,31.9104286 89.502,31.9104286 C87.288,31.9104286 85.668,30.8844286 84.75,29.3454286 L83.454,30.1014286 C84.372,31.9914286 86.667,33.3414286 89.502,33.3414286 Z M98.844,33.0714286 L100.626,33.0714286 L100.626,22.2714286 C102.516,20.7324286 103.677,19.9764286 105.432,19.9764286 C107.538,19.9764286 108.429,21.1104286 108.429,23.0004286 L108.429,33.0714286 L110.211,33.0714286 L110.211,22.5414286 C110.211,20.1114286 108.726,18.4914286 105.864,18.4914286 C103.893,18.4914286 102.597,19.2744286 100.545,20.8674286 L100.545,13.0374286 L98.844,13.0374286 L98.844,33.0714286 Z M121.524,33.3414286 C125.412,33.3414286 127.653,30.4794286 127.653,25.8624286 C127.653,21.7584286 125.871,18.4914286 121.848,18.4914286 C119.04,18.4914286 117.474,20.1114286 117.042,20.5974286 L117.042,13.0374286 L115.26,13.0374286 L115.26,33.0714286 L116.691,33.0714286 L116.853,30.8844286 C117.312,31.6134286 118.77,33.3414286 121.524,33.3414286 Z M121.173,31.9104286 C119.094,31.9104286 117.042,30.2094286 117.042,27.9954286 L117.042,22.4064286 C117.933,20.9214286 119.499,19.9224286 121.389,19.9224286 C124.224,19.9224286 125.817,22.1364286 125.817,25.8354286 C125.817,30.0744286 123.738,31.9104286 121.173,31.9104286 Z M136.887,33.3414286 C140.91,33.3414286 143.61,30.3174286 143.61,25.9434286 C143.61,21.5694286 140.937,18.4914286 136.914,18.4914286 C132.918,18.4914286 130.164,21.5694286 130.164,25.9974286 C130.164,30.3444286 132.837,33.3414286 136.887,33.3414286 Z M136.941,31.8834286 C133.863,31.8834286 132.027,29.3724286 132.027,25.9164286 C132.027,22.4874286 133.863,19.9224286 136.914,19.9224286 C139.965,19.9224286 141.747,22.4604286 141.747,25.9164286 C141.747,29.3724286 139.992,31.8834286 136.941,31.8834286 Z M150.954,33.3414286 C153.033,33.3414286 154.707,32.5314286 156.219,30.9384286 L156.354,33.0714286 L157.92,33.0714286 L157.92,23.1354286 C157.92,20.2464286 156.003,18.4914286 152.655,18.4914286 C149.847,18.4914286 147.876,19.8144286 146.769,21.7584286 L148.281,22.3794286 C149.388,20.7054286 150.819,19.8684286 152.547,19.8684286 C154.761,19.8684286 156.192,21.1914286 156.192,23.2704286 L156.192,24.4314286 L153.33,24.6474286 C148.794,24.9714286 146.391,26.6184286 146.391,29.4264286 C146.391,31.8294286 148.146,33.3414286 150.954,33.3414286 Z M151.494,31.9374286 C149.496,31.9374286 148.2,30.9114286 148.2,29.2374286 C148.2,27.2394286 150.063,26.1054286 153.762,25.8354286 L156.192,25.6464286 L156.192,28.5354286 C156.111,30.2364286 153.627,31.9374286 151.494,31.9374286 Z M162.267,33.0714286 L164.049,33.0714286 L164.049,23.8914286 C164.049,22.1364286 166.641,20.1654286 169.395,20.1924286 L169.395,18.4914286 C167.316,18.4914286 165.588,19.3284286 163.941,21.1374286 L163.941,18.7614286 L162.267,18.7614286 L162.267,33.0714286 Z M177.522,33.3414286 C180.141,33.3414286 181.626,31.6134286 182.193,30.9114286 L182.274,33.0714286 L183.759,33.0714286 L183.759,13.0374286 L181.977,13.0374286 L181.977,20.2734286 C180.6,19.0854286 179.385,18.4914286 177.711,18.4914286 C173.796,18.4914286 171.312,21.5424286 171.312,26.1324286 C171.312,30.8844286 173.985,33.3414286 177.522,33.3414286 Z M177.873,31.9104286 C175.362,31.9104286 173.148,30.1284286 173.148,26.0244286 C173.148,22.0824286 175.227,19.9224286 178.035,19.9224286 C179.628,19.9224286 180.87,20.6784286 181.977,22.1634286 L181.977,28.1574286 C181.977,29.9124286 180.249,31.9104286 177.873,31.9104286 Z" id="Dashboard" fill="#046CD5"></path>
            <g id="block/ui/icon/cloud-gov" transform="translate(0.000000, 1.000000)">
                <g id="Group-2">
                    <polygon id="Fill-1" fill="#046CD5" points="17 -0.0001 0 12.3769 6.92925554 17.7069 14.4868089 17.7069 16.9940067 9.9799 19.5022034 17.7069 27.0827311 17.7069 34 12.3769"></polygon>
                    <polygon id="Fill-2" fill="#333333" points="27.0822311 17.7041691 27.0862266 17.7041691 21.0519708 22.4780806 23.5601675 30.202701 16.9935067 25.4277901 10.4278448 30.202701 12.9360415 22.4780806 6.92875554 17.7041691 6.92975442 17.7041691 -0.0005 12.3765 -0.0005 32.0209056 16.9995 44.3765 33.9995 32.0209056 33.9995 12.3765"></polygon>
                </g>
            </g>
        </g>
    </g>
</svg>
