<?xml version="1.0" encoding="UTF-8" standalone="no"?>
<svg width="16px" height="16px" viewBox="0 0 16 16" version="1.1" xmlns="http://www.w3.org/2000/svg" xmlns:xlink="http://www.w3.org/1999/xlink">
    <!-- Generator: Sketch 40.3 (33839) - http://www.bohemiancoding.com/sketch -->
    <title>block/ui/icon/org-small</title>
    <desc>Created with Sketch.</desc>
    <defs>
        <rect id="path-1" x="0" y="0" width="16" height="16" rx="2"></rect>
        <mask id="mask-2" maskContentUnits="userSpaceOnUse" maskUnits="objectBoundingBox" x="0" y="0" width="16" height="16" fill="white">
            <use xlink:href="#path-1"></use>
        </mask>
        <circle id="path-3" cx="5.5" cy="5.5" r="5.5"></circle>
    </defs>
    <g id="-blocks-components-symbols" stroke="none" stroke-width="1" fill="none" fill-rule="evenodd">
        <g id="block/ui/icon/org-small">
            <g id="icon/org-small" stroke="#111111" stroke-width="2" fill="#FFFFFF">
                <use id="Rectangle-442" mask="url(#mask-2)" xlink:href="#path-1"></use>
            </g>
            <g id="Group-11" transform="translate(2.500000, 2.500000)">
                <mask id="mask-4" fill="white">
                    <use xlink:href="#path-3"></use>
                </mask>
                <g id="Oval-90"></g>
                <polygon id="Polygon-46-Copy-5" fill="#2A3946" mask="url(#mask-4)" points="11.5 2.5 14.0980762 4 14.0980762 7 11.5 8.5 8.90192379 7 8.90192379 4"></polygon>
                <polygon id="Polygon-46-Copy-6" fill="#2A3946" mask="url(#mask-4)" points="-0.5 2.5 2.09807621 4 2.09807621 7 -0.5 8.5 -3.09807621 7 -3.09807621 4"></polygon>
                <polygon id="Polygon-46-Copy" fill="#2A3946" mask="url(#mask-4)" points="2.5 -2.5 5.09807621 -1 5.09807621 2 2.5 3.5 -0.0980762114 2 -0.0980762114 -1"></polygon>
                <polygon id="Polygon-46-Copy-2" fill="#2A3946" mask="url(#mask-4)" points="8.5 -2.5 11.0980762 -1 11.0980762 2 8.5 3.5 5.90192379 2 5.90192379 -1"></polygon>
                <polygon id="Polygon-46-Copy-4" fill="#2A3946" mask="url(#mask-4)" points="2.5 7.5 5.09807621 9 5.09807621 12 2.5 13.5 -0.0980762114 12 -0.0980762114 9"></polygon>
                <polygon id="Polygon-46-Copy-3" fill="#2A3946" mask="url(#mask-4)" points="8.5 7.5 11.0980762 9 11.0980762 12 8.5 13.5 5.90192379 12 5.90192379 9"></polygon>
            </g>
        </g>
    </g>
</svg>