<svg xmlns="http://www.w3.org/2000/svg" width="401.994" height="401.994" viewBox="0 0 401.994 401.994"><path fill="#0071bb" d="M394 154.175c-5.33-5.33-11.806-7.994-19.417-7.994H255.81V27.41q0-11.417-7.993-19.414C242.487 2.666 236.02 0 228.397 0h-54.81q-11.42-.001-19.415 7.993-7.995 7.996-7.994 19.414v118.775H27.408q-11.419 0-19.415 7.994C-.003 162.17 0 165.973 0 173.59v54.818q-.002 11.426 7.992 19.41c5.33 5.333 11.803 7.995 19.414 7.995h118.77V374.59c0 7.61 2.665 14.09 7.995 19.417 5.33 5.325 11.806 7.987 19.418 7.987H228.4c7.618 0 14.087-2.662 19.418-7.987 5.332-5.33 7.994-11.806 7.994-19.417V255.813h118.77c7.618 0 14.09-2.662 19.417-7.994 5.325-5.33 7.99-11.797 7.99-19.415v-54.82c0-7.615-2.66-14.086-7.993-19.413z"/></svg>