<?xml version="1.0" encoding="UTF-8" standalone="no"?>
<svg width="17px" height="18px" viewBox="0 0 17 18" version="1.1" xmlns="http://www.w3.org/2000/svg" xmlns:xlink="http://www.w3.org/1999/xlink">
    <!-- Generator: Sketch 40.2 (33826) - http://www.bohemiancoding.com/sketch -->
    <title>search</title>
    <desc>Created with Sketch.</desc>
    <defs></defs>
    <g id="-blocks-components-symbols" stroke="none" stroke-width="1" fill="none" fill-rule="evenodd">
        <g id="search" fill="#046CD5">
            <g id="">
                <g id="features/search">
                    <g id="search">
                        <g id="search-selected">
                            <g id="header-copy">
                                <g id="Group-6">
                                    <path d="M11.571442,7.928563 C11.571442,10.4095927 9.552467,12.4285684 7.071437,12.4285684 C4.590407,12.4285684 2.571432,10.4095927 2.571432,7.928563 C2.571432,5.44753326 4.590407,3.42855763 7.071437,3.42855763 C9.552467,3.42855763 11.571442,5.44753326 11.571442,7.928563 L11.571442,7.928563 L11.571442,7.928563 Z M16.714306,16.2857158 C16.714306,15.9441976 16.57368,15.6127239 16.342653,15.3816969 L12.897337,11.9363803 C13.710954,10.7611557 14.142874,9.354904 14.142874,7.928563 C14.142874,4.02119227 10.978808,0.857126 7.071437,0.857126 C3.164066,0.857126 0,4.02119227 0,7.928563 C0,11.8359337 3.164066,15 7.071437,15 C8.497778,15 9.90403,14.5680798 11.079254,13.7544628 L14.524571,17.1897348 C14.755598,17.4308065 15.087072,17.5714316 15.42859,17.5714316 C16.131716,17.5714316 16.714306,16.9888417 16.714306,16.2857158 L16.714306,16.2857158 L16.714306,16.2857158 Z" id=""></path>
                                </g>
                            </g>
                        </g>
                    </g>
                </g>
            </g>
        </g>
    </g>
</svg>