<svg xmlns="http://www.w3.org/2000/svg" width="417" height="876" fill="none"><rect width="405" height="864" x="6" y="6" stroke="#000" stroke-linejoin="bevel" stroke-miterlimit="0" stroke-width="12" rx="54"/><g clip-path="url(#D)"><g filter="url(#B)"><path fill="#fff" fill-opacity=".75" d="M0 0h393v83H0z" style="mix-blend-mode:hard-light" transform="translate(13 781)"/></g><g filter="url(#C)"><mask id="A" fill="#fff"><path d="M12 12h393v54H12V12Z"/></mask><path fill="#fff" fill-opacity=".75" d="M12 12h393v54H12V12Z" style="mix-blend-mode:hard-light"/><path fill="#000" fill-opacity=".3" d="M405 65.667H12v.666h393v-.666Z" mask="url(#A)"/><path fill="#000" d="M69.69 35.063c.642 0 1.251.119 1.827.357a4.07 4.07 0 0 1 1.527 1.095c.448.493.8 1.127 1.054 1.901s.382 1.696.382 2.781v.017c0 1.344-.194 2.495-.581 3.453s-.944 1.693-1.668 2.208c-.72.509-1.58.764-2.582.764-.736 0-1.4-.133-1.992-.399a4.076 4.076 0 0 1-1.461-1.112 3.887 3.887 0 0 1-.772-1.627l-.017-.091h2.1l.034.083c.105.276.254.52.448.73a2.1 2.1 0 0 0 .714.49c.282.11.597.166.946.166.63 0 1.145-.186 1.544-.556.404-.377.706-.878.905-1.503.204-.63.32-1.328.348-2.092l.009-.24v-.241l-.374-2c0-.454-.105-.867-.315-1.237a2.372 2.372 0 0 0-.855-.88 2.266 2.266 0 0 0-1.204-.324 2.31 2.31 0 0 0-1.187.315c-.36.21-.647.498-.863.864a2.31 2.31 0 0 0-.324 1.212v.016c0 .465.103.877.307 1.237a2.25 2.25 0 0 0 .839.838c.354.205.758.308 1.212.308a2.47 2.47 0 0 0 1.22-.3c.36-.199.644-.475.855-.83s.315-.755.315-1.203v-.017h.498v2.208h-.29a2.883 2.883 0 0 1-.64.88 3.21 3.21 0 0 1-1.045.656c-.41.166-.891.249-1.445.249-.763 0-1.439-.171-2.025-.515a3.73 3.73 0 0 1-1.386-1.41c-.332-.598-.498-1.273-.498-2.026v-.017c0-.813.188-1.535.564-2.166a4.02 4.02 0 0 1 1.577-1.494c.675-.366 1.442-.548 2.3-.548zm8.559 10.666a1.3 1.3 0 0 1-.947-.373 1.28 1.28 0 0 1-.373-.93c0-.37.124-.68.373-.93.255-.254.57-.382.947-.382s.697.128.946.382.374.56.374.93a1.28 1.28 0 0 1-.374.93c-.25.249-.564.373-.946.373zm0-6.159a1.3 1.3 0 0 1-.947-.373 1.28 1.28 0 0 1-.373-.93c0-.37.124-.68.373-.93.255-.254.57-.382.947-.382s.697.128.946.382.374.56.374.93a1.28 1.28 0 0 1-.374.93c-.25.249-.564.373-.946.373zm9.579 7.77v-2.3h-5.86v-1.75l.946-1.619a155.643 155.643 0 0 1 1.959-3.22l.987-1.57.996-1.518h3.014v7.91h1.618v1.768H89.87v2.3h-2.042zm-3.868-4.018h3.9v-6.25h-.124l-.755 1.162-.772 1.22-.772 1.253a94.56 94.56 0 0 0-.755 1.254l-.722 1.236v.125zm12.484 4.018v-9.87h-.15l-2.98 2.1v-2.009l3.13-2.2h2.133V47.34h-2.133z"/><rect width="24" height="12" x="346" y="35.5" stroke="#000" opacity=".35" rx="3.8"/><path fill="#000" d="M371.5 39.781v4.076a2.212 2.212 0 0 0 1.328-2.038c0-.89-.523-1.693-1.328-2.038" opacity=".4"/><rect width="21" height="9" x="347.5" y="37" fill="#000" rx="2.5"/><path fill="#000" fill-rule="evenodd" d="M329.771 38.104c2.487 0 4.879.922 6.681 2.576a.355.355 0 0 0 .487-.004l1.297-1.263a.343.343 0 0 0 .105-.248.342.342 0 0 0-.108-.246c-4.731-4.375-12.195-4.375-16.926 0a.346.346 0 0 0-.108.246c0 .093.037.182.105.248l1.298 1.263c.133.13.35.132.486.004a9.89 9.89 0 0 1 6.683-2.576zm-.004 4.22a5.43 5.43 0 0 1 3.672 1.436.344.344 0 0 0 .484-.006l1.287-1.32a.367.367 0 0 0-.005-.52 7.9 7.9 0 0 0-10.873.001.367.367 0 0 0-.005.52l1.287 1.319a.342.342 0 0 0 .483.006 5.43 5.43 0 0 1 3.67-1.436zm2.525 2.794a.408.408 0 0 1-.103.28l-2.177 2.455a.32.32 0 0 1-.241.113.324.324 0 0 1-.242-.113l-2.177-2.454a.408.408 0 0 1-.102-.281.403.403 0 0 1 .113-.276 3.43 3.43 0 0 1 4.816 0 .4.4 0 0 1 .113.276zM313.7 36.682c0-.633-.478-1.146-1.067-1.146h-1.066c-.589 0-1.067.513-1.067 1.146v9.934c0 .633.478 1.146 1.067 1.146h1.066c.589 0 1.067-.513 1.067-1.146v-9.934zm-7.434 1.3h1.067c.589 0 1.066.525 1.066 1.173v7.434c0 .648-.477 1.173-1.066 1.173h-1.067c-.589 0-1.067-.525-1.067-1.173v-7.434c0-.648.478-1.174 1.067-1.174zm-4.332 2.648h-1.067c-.589 0-1.066.532-1.066 1.189v4.755c0 .656.477 1.188 1.066 1.188h1.067c.589 0 1.067-.532 1.067-1.188v-4.755c0-.657-.478-1.189-1.067-1.189zm-5.301 2.445h-1.066c-.589 0-1.067.525-1.067 1.172v2.343c0 .648.478 1.172 1.067 1.172h1.066c.589 0 1.067-.524 1.067-1.172v-2.343c0-.647-.478-1.172-1.067-1.172z"/></g><rect width="139" height="5" fill="#000" rx="2.5" transform="matrix(-1 0 0 1 278 851)"/></g><defs><filter id="B" width="493" height="183" x="-37" y="731" color-interpolation-filters="sRGB" filterUnits="userSpaceOnUse"><feFlood flood-opacity="0"/><feGaussianBlur stdDeviation="25"/><feComposite in2="SourceAlpha" operator="in" result="B"/><feColorMatrix in="SourceAlpha" result="C" values="0 0 0 0 0 0 0 0 0 0 0 0 0 0 0 0 0 0 127 0"/><feOffset dy="-.33"/><feComposite in2="C" operator="out"/><feColorMatrix values="0 0 0 0 0 0 0 0 0 0 0 0 0 0 0 0 0 0 0.3 0"/><feBlend in2="B"/><feBlend in="SourceGraphic"/></filter><filter id="C" width="493" height="154" x="-38" y="-38" color-interpolation-filters="sRGB" filterUnits="userSpaceOnUse"><feFlood flood-opacity="0"/><feGaussianBlur stdDeviation="25"/><feComposite in2="SourceAlpha" operator="in"/><feBlend in="SourceGraphic"/></filter><clipPath id="D"><rect width="393" height="852" x="12" y="12" fill="#fff" rx="48"/></clipPath></defs></svg>